<?xml version="1.0" encoding="utf-8"?>
<!-- Generator: Adobe Illustrator 15.1.0, SVG Export Plug-In . SVG Version: 6.00 Build 0)  -->
<!DOCTYPE svg PUBLIC "-//W3C//DTD SVG 1.1//EN" "http://www.w3.org/Graphics/SVG/1.1/DTD/svg11.dtd">
<svg version="1.1" id="Layer_1" xmlns="http://www.w3.org/2000/svg" xmlns:xlink="http://www.w3.org/1999/xlink" x="0px" y="0px"
	 width="1230px" height="574px" viewBox="0 0 1230 574" enable-background="new 0 0 1230 574" xml:space="preserve">
<g id="base">
	<g>
		<g>
			<path fill="#EAD2C1" d="M1230,564c0,5.5-4.5,10-10,10H10c-5.5,0-10-4.5-10-10V46c0-5.5,4.5-10,10-10h1210c5.5,0,10,4.5,10,10V564
				z"/>
		</g>
		<g>
			<path fill="#FEE5D0" d="M1230,528c0,5.5-4.5,10-10,10H10c-5.5,0-10-4.5-10-10V10C0,4.5,4.5,0,10,0h1210c5.5,0,10,4.5,10,10V528z"
				/>
		</g>
		<g>
			<path fill="#05B796" d="M31,102c0-5.5,4.5-10,10-10h1140c5.5,0,10,4.5,10,10v390c0,5.5-4.5,10-10,10H41c-5.5,0-10-4.5-10-10V102z
				"/>
		</g>
	</g>
</g>
<g id="bars">
	<g>
		<path fill="#199E85" d="M738,127c0,11-9,20-20,20H408c-11,0-20-9-20-20v-15c0-11,9-20,20-20h310c11,0,20,9,20,20V127z"/>
	</g>
	<g>
		<path fill="#199E85" d="M738,202c0,11-9,20-20,20H408c-11,0-20-9-20-20v-15c0-11,9-20,20-20h310c11,0,20,9,20,20V202z"/>
	</g>
	<g>
		<path fill="#199E85" d="M738,277c0,11-9,20-20,20H408c-11,0-20-9-20-20v-15c0-11,9-20,20-20h310c11,0,20,9,20,20V277z"/>
	</g>
	<g>
		<path fill="#199E85" d="M738,482c0,11-9,20-20,20H408c-11,0-20-9-20-20l0,0c0-11,9-20,20-20h310C729,462,738,471,738,482L738,482z
			"/>
	</g>
	<rect x="388" y="92" fill="#199E85" width="350" height="22"/>
	<rect x="388" y="482" fill="#199E85" width="350" height="20"/>
</g>
<g id="dpad">
	<g>
		<g>
			<path fill="#199E85" d="M265,213c0-5.5-4.5-10-10-10h-84c-5.5,0-10,4.5-10,10v50c0,5.5-4.5,10-10,10h-50c-5.5,0-10,4.5-10,10v84
				c0,5.5,4.5,10,10,10h50c5.5,0,10,4.5,10,10v50c0,5.5,4.5,10,10,10h84c5.5,0,10-4.5,10-10v-50c0-5.5,4.5-10,10-10h50
				c5.5,0,10-4.5,10-10v-84c0-5.5-4.5-10-10-10h-50c-5.5,0-10-4.5-10-10V213z"/>
		</g>
		<g>
			<path fill="#4FB278" d="M171,223c0-5.5,4.5-10,10-10h64c5.5,0,10,4.5,10,10v50c0,5.5,4.5,10,10,10h50c5.5,0,10,4.5,10,10v64
				c0,5.5-4.5,10-10,10h-50c-5.5,0-10,4.5-10,10v50c0,5.5-4.5,10-10,10h-64c-5.5,0-10-4.5-10-10v-50c0-5.5-4.5-10-10-10h-50
				c-5.5,0-10-4.5-10-10v-64c0-5.5,4.5-10,10-10h50c5.5,0,10-4.5,10-10V223z"/>
		</g>
		<g>
			<path fill="#53BD87" d="M171,218c0-5.5,4.5-10,10-10h64c5.5,0,10,4.5,10,10v50c0,5.5,4.5,10,10,10h50c5.5,0,10,4.5,10,10v64
				c0,5.5-4.5,10-10,10h-50c-5.5,0-10,4.5-10,10v50c0,5.5-4.5,10-10,10h-64c-5.5,0-10-4.5-10-10v-50c0-5.5-4.5-10-10-10h-50
				c-5.5,0-10-4.5-10-10v-64c0-5.5,4.5-10,10-10h50c5.5,0,10-4.5,10-10V218z"/>
		</g>
	</g>
</g>
<g id="lbut">
	<g>
		<path fill="#199E85" d="M903,438c0,5.5-4.5,10-10,10H779c-5.5,0-10-4.5-10-10V324c0-5.5,4.5-10,10-10h114c5.5,0,10,4.5,10,10V438z
			"/>
	</g>
	<circle fill="#4FB278" cx="836" cy="381" r="57"/>
	<circle fill="#53BD87" cx="836" cy="376" r="57"/>
</g>
<g id="rbut">
	<g>
		<path fill="#199E85" d="M1064,438c0,5.5-4.5,10-10,10H940c-5.5,0-10-4.5-10-10V324c0-5.5,4.5-10,10-10h114c5.5,0,10,4.5,10,10V438
			z"/>
	</g>
	<circle fill="#4FB278" cx="997" cy="381" r="57"/>
	<circle fill="#53BD87" cx="997" cy="376" r="57"/>
</g>
<g id="selstar">
	<g>
		<path fill="#1A9377" d="M738,427c0,5.5-4.5,10-10,10H398c-5.5,0-10-4.5-10-10V327c0-5.5,4.5-10,10-10h330c5.5,0,10,4.5,10,10V427z
			"/>
	</g>
	<g>
		<path fill="#53BD87" d="M398,417c0,5.5,4.5,10,10,10h310c5.5,0,10-4.5,10-10v-80c0-5.5-4.5-10-10-10H408c-5.5,0-10,4.5-10,10V417z
			"/>
	</g>
	<g>
		<path fill="#EAD2C1" d="M525,377c0,11-9,20-20,20h-52c-11,0-20-9-20-20l0,0c0-11,9-20,20-20h52C516,357,525,366,525,377L525,377z"
			/>
	</g>
	<g>
		<path fill="#EAD2C1" d="M682,377c0,11-9,20-20,20h-52c-11,0-20-9-20-20l0,0c0-11,9-20,20-20h52C673,357,682,366,682,377L682,377z"
			/>
	</g>
	<g>
		<path fill="#FEE5D0" d="M682,372c0,11-9,20-20,20h-52c-11,0-20-9-20-20l0,0c0-11,9-20,20-20h52C673,352,682,361,682,372L682,372z"
			/>
	</g>
	<g>
		<path fill="#FEE5D0" d="M525,372c0,11-9,20-20,20h-52c-11,0-20-9-20-20l0,0c0-11,9-20,20-20h52C516,352,525,361,525,372L525,372z"
			/>
	</g>
	<g>
		<g>
			<path fill="#199E85" d="M398,312c-5.5,0-10,4.5-10,10v100c0,5.5,4.5,10,10,10h330c5.5,0,10-4.5,10-10V322c0-5.5-4.5-10-10-10H398
				z M728,412c0,5.5-4.5,10-10,10H408c-5.5,0-10-4.5-10-10v-80c0-5.5,4.5-10,10-10h310c5.5,0,10,4.5,10,10V412z"/>
		</g>
	</g>
</g>
</svg>
